# xmcd
#
# Track frame offsets:
#	150
#	12643
#	25290
#	36287
#	51156
#	63862
#	77239
#	90118
#	102268
#	115205
#	126495
#	140957
#	151661
#	165213
#	180181
#	192619
#	206376
#	220104
#	235349
#	247050
#	259525
#	271942
#	284723
#	298599
#	312777
#	327511
#
# Disc length: 4574 seconds
# Revision: 0
# Processed by: cddbd v1.5.2PL0 Copyright (c) Steve Scherf et al.
# Submitted via: dBpowerAMP V12.0
#
DISCID=7a11dc1a
DTITLE=Tommy Overstreet - Best of
DYEAR=1900
DGENRE=Country
TTITLE0=Gwen Congraulations
TTITLE1=I Don't Know You
TTITLE2=Ann
TTITLE3=A seed before the Rose
TTITLE4=Heaven Is My Woman's Love
TTITLE5=Send Me No More Roses
TTITLE6=I'll Never Break These Chains
TTITLE7=(Jeannie Marie) You Were A Lady
TTITLE8=If I I Miss You Again Tonight
TTITLE9=I'm A Believer
TTITLE10=That's Whe My Woman Begins
TTITLE11=From Woman To Woman
TTITLE12=Here Comes That Girl, Again
TTITLE13=If Love Was A Bottle Of Win
TTITLE14=Don't Go City Girl On Me
TTITLE15=This Time In In It For The Love
TTITLE16=Yes Mama 
TTITLE17=Better Me
TTITLE18=Fadin' In, Fadin' Out 
TTITLE19=Me And You And A Dog Named Boo
TTITLE20=Help Me make It Trhough The night
TTITLE21=Behind Closed Doors
TTITLE22=Tie A yellow Ribbon Round The Ole Oak Tree
TTITLE23=Ruby Don't Take Your Love To Town
TTITLE24=Sweet Caroline
TTITLE25=Polk Salad Annie
EXTD=
EXTT0=
EXTT1=
EXTT2=
EXTT3=
EXTT4=
EXTT5=
EXTT6=
EXTT7=
EXTT8=
EXTT9=
EXTT10=
EXTT11=
EXTT12=
EXTT13=
EXTT14=
EXTT15=
EXTT16=
EXTT17=
EXTT18=
EXTT19=
EXTT20=
EXTT21=
EXTT22=
EXTT23=
EXTT24=
EXTT25=
PLAYORDER=
